<svg version="1.1" id="Layer_1" xmlns="http://www.w3.org/2000/svg" x="0" y="0" viewBox="0 0 984 393" xml:space="preserve"><style>.st0{fill:#cef4ff}.st1{fill:#ff9934}.st3{fill:#032765}.st4{fill:#1876da}.st5{fill:#f4d8bc}.st6{fill:#fff}</style><g id="Footer-Illo-D"><g id="Group" transform="translate(329)"><path id="Path" class="st0" d="M-233.6 26.5v83.4c-.4-.1-.8-.2-1.2-.2-.4 0-.8.1-1.2.2V26.5h2.4z"/><path id="Rectangle" class="st1" d="M277.4 168.5h75.3v192.6h-75.3z"/><path id="Rectangle_1_" class="st0" d="M155.4 221.4h25.2v96.3h-25.2z"/><path id="Path_1_" class="st0" d="M341.9 211.8h7.3c5.2 0 9.4 4.2 9.4 9.4v138.5h-16.7V211.8z"/><path id="Rectangle_2_" class="st0" d="M438.1 190.9h33.4v189.4h-33.4z"/><path id="Rectangle_3_" class="st1" d="M513.7 297.2h15.4c5.4 0 9.8 4.4 9.8 9.9V386c0 5.4-4.4 9.9-9.8 9.9h-15.4c-5.4 0-9.8-4.4-9.8-9.9v-78.9c-.1-5.5 4.3-9.9 9.8-9.9z"/><path id="Rectangle_4_" fill="#91d5e2" d="M477.8 313.3h18.1V373h-18.1z"/><path id="Rectangle_5_" class="st3" d="M155.4 352.2h32.5v40.6h-32.5z"/><path id="Rectangle_6_" class="st1" d="M176.2 329.1h17.6v64.5h-17.6z"/><path id="Path_2_" class="st0" d="M-102.9 386.4H-117V279.6c0-3.7 1.5-7.3 4.1-10 2.6-2.6 6.2-4.1 10-4.1v120.9z"/><path id="Rectangle_7_" class="st0" d="M464.6 209.9h41.5v152h-41.5z"/><path id="Rectangle_8_" class="st1" d="M459.7 209.9h36.2v152h-36.2z"/><path id="Rectangle_9_" class="st3" d="M464.2 249.6h4.2v7.4h-4.2z"/><path id="Rectangle_10_" class="st3" d="M471.7 249.6h4.2v7.4h-4.2z"/><path id="Rectangle_11_" class="st1" d="M-159.7 168.6h25.4v91.2h-25.4z"/><path id="Rectangle_12_" class="st3" d="M-17.2 252.4H2.2v105.1h-19.4z"/><path id="Rectangle_13_" class="st0" d="M-22.5 310.3H.1v46.8h-22.6z"/><path id="Rectangle_14_" class="st0" d="M-145.7 168.5h11.5v57.9h-11.5z"/><path id="Rectangle_15_" class="st1" d="M-133.2 278.2h24.6V314h-24.6z"/><path id="Rectangle_16_" class="st4" d="M601.6 257.5h18.1v78.2h-18.1z"/><path id="Rectangle_17_" class="st3" d="M628.1 313h16.5v34.2h-16.5z"/><path id="Rectangle_18_" class="st0" d="M411 269.4h12c4.3 0 7.7 3.4 7.7 7.7v84.1c0 4.3-3.4 7.7-7.7 7.7h-12c-4.3 0-7.7-3.4-7.7-7.7v-84.1c0-4.2 3.4-7.7 7.7-7.7z"/><path id="Rectangle_19_" class="st1" d="M351.2 295.1h27.6v71.5h-27.6z"/><path id="Path_3_" class="st3" d="M370.9 261.6h5.1v114h-11.7V268.1c.1-3.6 3-6.5 6.6-6.5z"/><path id="Rectangle_20_" class="st1" d="M176.2 155.9h52v237h-52z"/><path id="Path_4_" class="st3" d="M215.8 155.9h-30.2c0-2.8 2.2-5 5-5h20.1c1.3 0 2.6.5 3.6 1.4.9 1 1.5 2.2 1.5 3.6z"/><path id="Rectangle_21_" class="st0" d="M202.2 163.4h22.5v5.3h-22.5z"/><path id="Rectangle_22_" class="st0" d="M202.2 173.9h22.5v5.3h-22.5z"/><path id="Rectangle_23_" class="st0" d="M202.2 186.1h22.5v5.3h-22.5z"/><path id="Rectangle_24_" class="st0" d="M241.8 214.2h22v47.4h-22z"/><path id="Rectangle_25_" class="st0" d="M263.8 265.6h15v80.6h-15z"/><path id="Rectangle_26_" class="st5" d="M163.8 269.6H188V391h-24.2z"/><path id="Rectangle_27_" class="st5" d="M163.8 264.8H188v4.7h-24.2z"/><path id="Rectangle_28_" class="st3" d="M166.7 274.4h3.8v7.7h-3.8z"/><path id="Rectangle_29_" class="st3" d="M166.7 286.9h3.8v7.7h-3.8z"/><path id="Rectangle_30_" class="st3" d="M166.7 299.4h3.8v7.7h-3.8z"/><path id="Rectangle_31_" class="st6" d="M129.6 168.7h25.9v171.5h-25.9z"/><path id="Rectangle_32_" class="st0" d="M244.7 217.6h11.5v3.4h-11.5z"/><path id="Rectangle_33_" class="st0" d="M244.7 225.3h11.5v3.4h-11.5z"/><path id="Path_5_" class="st3" d="M-35.4 140.1v74.1H-38v50.7h-10.1V140.1z"/><path id="Rectangle_34_" class="st4" d="M-35.4 140.1h12v74.1h-12z"/><path id="Shape" class="st1" d="M634.5 280.4V336H591v-55.6h43.5zm-6.7 27.6v-16.6H619V308h8.8z"/><path id="Rectangle_35_" class="st3" d="M619 291.4h8.8V308H619z"/><path id="Rectangle_36_" class="st3" d="M597.6 311.2h10.8c3.8 0 6.9 3.1 6.9 6.9v70.7c0 3.8-3.1 6.9-6.9 6.9h-10.8c-3.8 0-6.9-3.1-6.9-6.9v-70.7c0-3.8 3.1-6.9 6.9-6.9z"/><path id="Rectangle_37_" class="st0" d="M357.4 327.2h17.8v67.9h-17.8z"/><path id="Path_6_" class="st1" d="M43.7 226.5h24.7v89.8H36.3v-82.4c0-4 3.3-7.4 7.4-7.4z"/><path id="Shape_1_" class="st0" d="M652.3 336v60h-61.4v-60h61.4zM642 386.7v-16.8h-7.5v16.8h7.5zm-14.9 0v-16.8h-7.5v16.8h7.5zm-14.4 0v-16.8h-7.5v16.8h7.5z"/><path id="Rectangle_38_" class="st3" d="M634.5 369.9h7.5v16.8h-7.5z"/><path id="Rectangle_39_" class="st3" d="M619.6 369.9h7.5v16.8h-7.5z"/><path id="Rectangle_40_" class="st3" d="M605.1 369.9h7.5v16.8h-7.5z"/><path id="Shape_2_" class="st0" d="M590.9 336v60h-23.7V217h23.7v119zm-9.2-103.3c0-2.8-2.2-5-5-5s-5 2.2-5 5 2.2 5 5 5 5-2.3 5-5z"/><path id="Path_7_" class="st6" d="M576.6 227.6c2.8 0 5 2.2 5 5s-2.2 5-5 5-5-2.2-5-5c0-2.7 2.3-5 5-5z"/><path id="Path_8_" class="st4" d="M567.2 217v179h-5.7V186.8h5.7z"/><path id="Rectangle_41_" class="st4" d="M543.6 186.9h17.9V396h-17.9z"/><path id="Path_9_" class="st5" d="M543.6 186.8V396h-7.3V186.8z"/><path id="Rectangle_42_" class="st3" d="M519.4 338h16.9v58h-16.9z"/><path id="Shape_3_" class="st0" d="M536.3 186.8v151.1h-16.9V186.8h16.9zm-3.8 135.9V308h-3.4v14.7h3.4zm0-27.6v-14.6h-3.4v14.6h3.4zm0-31.6v-14.7h-3.4v14.7h3.4zm0-28.6v-14.6h-3.4V235l3.4-.1zm0-24.2V196h-3.4v14.7h3.4zm-5.1 112V308H524v14.7h3.4zm0-27.6v-14.7H524V295l3.4.1zm0-31.5v-14.7H524v14.7h3.4zm0-28.6v-14.6H524V235h3.4zm0-24.2v-14.7H524v14.7h3.4z"/><path id="Rectangle_43_" class="st3" d="M529.2 308h3.4v14.7h-3.4z"/><path id="Rectangle_44_" class="st3" d="M529.2 280.4h3.4V295h-3.4z"/><path id="Rectangle_45_" class="st3" d="M529.2 248.9h3.4v14.7h-3.4z"/><path id="Rectangle_46_" class="st3" d="M529.2 220.3h3.4V235h-3.4z"/><path id="Rectangle_47_" class="st3" d="M529.2 196.1h3.4v14.6h-3.4z"/><path id="Rectangle_48_" class="st3" d="M524 308h3.4v14.7H524z"/><path id="Rectangle_49_" class="st3" d="M524 280.4h3.4V295H524z"/><path id="Rectangle_50_" class="st3" d="M524 248.9h3.4v14.7H524z"/><path id="Rectangle_51_" class="st3" d="M524 220.3h3.4V235H524z"/><path id="Rectangle_52_" class="st3" d="M524 196.1h3.4v14.6H524z"/><path id="Path_10_" class="st3" d="M519.4 338v58h-3.9v-23.3h-15.8V338z"/><path id="Path_11_" class="st1" d="M515.5 372.7V396h-89.7v-23.3H499.7z"/><path id="Path_12_" class="st4" d="M499.7 338v34.7h-31.8V338h19.3z"/><path id="Path_13_" class="st3" d="M487.2 269.3v68.6h-9.1v-74.4h3.3c3.3 0 5.8 2.6 5.8 5.8z"/><path id="Path_14_" class="st5" d="M478.2 263.5V338h-10.3v34.7h-15.7V308h-3.6v-44.5z"/><path id="Rectangle_53_" class="st5" d="M448.6 308h3.6v64.7h-3.6z"/><path id="Rectangle_54_" class="st0" d="M437.5 308h11v64.7h-11z"/><path id="Path_15_" class="st5" d="M434.3 332.8v39.9h-8.5V396h-8.4v-63.2z"/><path id="Shape_4_" class="st4" d="M417.4 332.8V396H372V200.5h45.4v132.3zm-14-110.9V212h-19.9v9.9h19.9zm0 2.7h-12.2c.7 2.8 3.2 4.8 6.1 4.8 2.9 0 5.4-2 6.1-4.8z"/><path id="Rectangle_55_" class="st3" d="M383.5 212h19.9v9.9h-19.9z"/><path id="Path_16_" class="st1" d="M391.2 224.6h12.2c-.7 2.8-3.2 4.8-6.1 4.8-2.9 0-5.4-2-6.1-4.8z"/><path id="Rectangle_56_" class="st3" d="M351.6 358.1H368V396h-16.4z"/><path id="Rectangle_57_" class="st1" d="M340.8 358.1h10.8V396h-10.8z"/><path id="Shape_5_" class="st4" d="M346.4 131.1v37.6h-61.8v-37.6h61.8zm-5.6 32.3v-25h-5.6v25h5.6zm-10.8 0v-25h-5.6v25h5.6zm-11.5 0v-25h-5.6v25h5.6zm-11.8-.1v-25h-5.6v25h5.6zm-11.5 0v-25h-5.6v25h5.6z"/><path id="Path_17_" class="st0" d="M340.8 320.4v37.7h-8V396H330v-52.2h-21.4v-23.4z"/><path id="Rectangle_58_" class="st3" d="M335.2 138.4h5.6v25h-5.6z"/><path id="Shape_6_" class="st5" d="M339.2 111.1v20h-48.4v-30h48.4v10zm-4.7 15.9v-20.2H331V127h3.5zm-9 0v-20.2H322V127h3.5zm-8.7 0v-20.2h-3.4V127h3.4zm-8.2 0v-20.2h-3.4V127h3.4zm-8.7 0v-20.2h-3.4V127h3.4z"/><path id="Path_18_" class="st3" d="M322.7 91.3h8.9c2 0 4 .8 5.4 2.3s2.2 3.4 2.2 5.4v2.1h-48.4v-1.4c0-2.2.9-4.3 2.4-5.9s3.7-2.4 5.9-2.4h23.6z"/><path id="Rectangle_59_" class="st1" d="M331 106.8h3.4V127H331z"/><path id="Shape_7_" class="st1" d="M330 343.8V396h-66.2v-52.2H330zm-17.7 25.6v-5.1h-42.8v5.1h42.8zm0-8.1v-5h-42.8v5h42.8z"/><path id="Rectangle_60_" class="st3" d="M324.4 138.4h5.6v25h-5.6z"/><path id="Rectangle_61_" class="st1" d="M322 106.8h3.4V127H322z"/><path id="Path_19_" class="st0" d="M319.4 62.4l3.3 28.9h-14.1l3.3-28.9z"/><path id="Rectangle_62_" class="st3" d="M312.9 138.4h5.6v25h-5.6z"/><path id="Rectangle_63_" class="st1" d="M313.4 106.8h3.4V127h-3.4z"/><path id="Rectangle_64_" class="st0" d="M314.8 0h1.6v36.5h-1.6z"/><path id="Path_20_" class="st3" d="M314.8 36.5h2.5l2.1 25.9h-7.5l2.1-25.9z"/><path id="Rectangle_65_" class="st0" d="M269.5 364.4h42.8v5h-42.8z"/><path id="Rectangle_66_" class="st0" d="M269.5 356.3h42.8v5h-42.8z"/><path id="Rectangle_67_" class="st1" d="M305.2 106.8h3.4V127h-3.4z"/><path id="Rectangle_68_" class="st3" d="M301 138.4h5.6v25H301z"/><path id="Rectangle_69_" class="st1" d="M296.5 106.8h3.4V127h-3.4z"/><path id="Rectangle_70_" class="st3" d="M289.6 138.4h5.6v25h-5.6z"/><path id="Path_21_" class="st3" d="M263.8 343.8V396H256v-26.1h-11v-17.2h-6.5v-19.9h-16.8v-52.4h42.1z"/><path id="Path_22_" class="st4" d="M263.8 245.8v34.6h-42.1v52.4h-15.9V396h-20.2V245.8z"/><path id="Path_23_" class="st1" d="M256 369.9V396h-26.8v-26.1H245z"/><path id="Rectangle_71_" class="st0" d="M238.5 352.7h6.5v17.1h-6.5z"/><path id="Path_24_" class="st5" d="M238.5 352.7v17.2h-9.3V396h-23.4v-63.2h32.7z"/><path id="Shape_8_" class="st1" d="M144.3 196.1V396h-28.9V224.6H97.6v-28.5h46.7zm-5.6 94.6V286h-13.5v4.7h13.5zm0-12.1v-4.7h-13.5v4.7h13.5zm0-10.7v-4.7h-13.5v4.7h13.5zm0-12.1v-4.7h-13.5v4.7h13.5zm0-12V239h-13.5v4.7h13.5zm0-12.1V227h-13.5v4.7h13.5z"/><path id="Rectangle_72_" class="st3" d="M125.2 286h13.5v4.7h-13.5z"/><path id="Rectangle_73_" class="st3" d="M125.2 273.9h13.5v4.7h-13.5z"/><path id="Rectangle_74_" class="st3" d="M125.2 263.2h13.5v4.7h-13.5z"/><path id="Rectangle_75_" class="st3" d="M125.2 251.1h13.5v4.7h-13.5z"/><path id="Rectangle_76_" class="st3" d="M125.2 239h13.5v4.7h-13.5z"/><path id="Rectangle_77_" class="st3" d="M125.2 226.9h13.5v4.7h-13.5z"/><path id="Path_25_" class="st3" d="M115.4 224.3v90.6H76.9v-90.6z"/><path id="Rectangle_78_" class="st4" d="M100 234.6h6.1v9.9H100z"/><path id="Rectangle_79_" class="st4" d="M89.7 234.6h6.1v9.9h-6.1z"/><path id="Rectangle_80_" class="st1" d="M17.5 346.1h85.9v5.7H17.5z"/><path id="Rectangle_81_" class="st1" d="M17.5 335.1h85.9v5.7H17.5z"/><path id="Rectangle_82_" class="st1" d="M17.5 324.1h85.9v5.7H17.5z"/><path id="Path_26_" class="st5" d="M102.8 101.2H69.4v102.2H51.5v78.9H67.4v32.5h11v-90.2h19.5v-28.5h4.9z"/><path id="Rectangle_83_" class="st3" d="M92.2 137.7h5.4v15.6h-5.4z"/><path id="Rectangle_84_" class="st3" d="M92.2 114.7h5.4v15.6h-5.4z"/><path id="Rectangle_85_" class="st3" d="M82.8 137.7h5.3v15.6h-5.3z"/><path id="Rectangle_86_" class="st3" d="M82.8 114.7h5.3v15.6h-5.3z"/><path id="Rectangle_87_" class="st3" d="M72 137.7h5.3v15.6H72z"/><path id="Rectangle_88_" class="st3" d="M72 114.7h5.3v15.6H72z"/><path id="Rectangle_89_" class="st4" d="M51.5 101.2h17.8v102.2H51.5z"/><path id="Rectangle_90_" class="st0" d="M54.9 280.4h13.9v34.4H54.9z"/><path id="Path_27_" class="st4" d="M17.1 126.1v41.7H-8.4v-41.7z"/><path id="Shape_9_" class="st5" d="M-2.4 352.7V396h-73.2v-43.2h73.2v-.1zm-31.7 22.9V361h-4.2v14.6h4.2zm-8.6 0V361h-4.2v14.6h4.2zm-9 0V361h-4.2v14.6h4.2zm-8.6 0V361h-4.2v14.6h4.2z"/><path id="Path_28_" class="st3" d="M-17.7 212.7v140.2H-38V212.7h13z"/><path id="Rectangle_91_" class="st5" d="M-38.3 360.9h4.2v14.6h-4.2z"/><path id="Path_29_" class="st4" d="M-38 264.9v87.8h-22.3v-49.9h-22.2v-37.9h34.4z"/><path id="Rectangle_92_" class="st5" d="M-46.9 360.9h4.2v14.6h-4.2z"/><path id="Rectangle_93_" class="st4" d="M-59.7 140.1h11.6v124.8h-11.6z"/><path id="Rectangle_94_" class="st5" d="M-55.9 360.9h4.2v14.6h-4.2z"/><path id="Rectangle_95_" class="st0" d="M-72 140.1h12.3v124.8H-72z"/><path id="Rectangle_96_" class="st5" d="M-64.5 360.9h4.2v14.6h-4.2z"/><path id="Shape_10_" class="st4" d="M-72 140.1v124.8h-10.5v37.9H-100V140.1h28zm-5.5 53.4v-3.6h-16.1v3.6h16.1zm0-9.7v-3.6h-16.1v3.6h16.1zm0-9.3v-3.6h-16.1v3.6h16.1zm0-9.3v-3.6h-16.1v3.6h16.1zm0-9.3v-3.5h-16.1v3.6l16.1-.1z"/><path id="Rectangle_97_" class="st1" d="M-93.6 190h16.1v3.6h-16.1z"/><path id="Rectangle_98_" class="st1" d="M-93.6 180.2h16.1v3.6h-16.1z"/><path id="Rectangle_99_" class="st1" d="M-93.6 170.9h16.1v3.6h-16.1z"/><path id="Rectangle_100_" class="st1" d="M-93.6 161.6h16.1v3.6h-16.1z"/><path id="Rectangle_101_" class="st1" d="M-93.6 152.3h16.1v3.6h-16.1z"/><path id="Shape_11_" class="st3" d="M-128.2 302.8V396h-31.6v-34.6h-21.9v-140h53.6v81.4zm-11.4-65.6v-9.4h-31.5v9.4h31.5z"/><path id="Path_30_" class="st0" d="M-137 218.7v2.7h-36.2V220c0-1.2.5-2.4 1.4-3.3.9-.9 2-1.3 3.3-1.3h28.3c.9 0 1.7.3 2.3 1 .6.6.9 1.4.9 2.3z"/><path id="Rectangle_102_" class="st1" d="M-171.2 227.8h31.5v9.4h-31.5z"/><path id="Rectangle_103_" class="st1" d="M-200.4 266.5h18.6v94.8h-18.6z"/><path id="Path_31_" class="st4" d="M-210.2 337.1l-23.3-189.7-24.5 187.9-8 60.7h-1.8V127h67.4v234.3h-6.8z"/><path id="Path_32_" class="st0" d="M-233.5 147.3l23.4 189.8c-2.9-12.2-7.9-24.9-22.8-24.9-13.6 0-21.1 11.6-25.1 23l24.5-187.9z"/><path id="Path_33_" class="st1" d="M-223.8 114.2h-21.8c-4 0-7.3 3.3-7.3 7.3v5.4h36.2v-5.6c0-3.9-3.2-7.1-7.1-7.1z"/><path id="Path_34_" class="st4" d="M-233.6 108.4c2.2.6 3.6 2.8 3.3 5-.3 2.3-2.2 4-4.5 4s-4.2-1.7-4.5-4c-.3-2.3 1.1-4.4 3.3-5 .4-.1.8-.2 1.2-.2.4.1.9.1 1.2.2z"/><path id="Path_35_" class="st1" d="M-267.8 282.1V396h-14v-60.4h-16.9v-53.5z"/><path id="Shape_12_" class="st4" d="M-281.8 335.6V396h-40.7v-60.4h40.7zm-10.7 12.5c0-2.6-2.1-4.7-4.7-4.7h-10.2c-1.2 0-2.4.5-3.3 1.4-.9.9-1.4 2.1-1.4 3.3v.1c0 1.2.5 2.4 1.4 3.3.9.9 2.1 1.4 3.3 1.4h10.2c2.6-.2 4.7-2.3 4.7-4.8z"/><path id="Path_36_" class="st1" d="M-292.5 348c0 2.6-2.1 4.7-4.7 4.7h-10.2c-2.6 0-4.7-2.1-4.7-4.7 0-1.2.5-2.4 1.4-3.3.9-.9 2.1-1.4 3.3-1.4h10.2c2.6 0 4.7 2.1 4.7 4.7z"/><path id="Path_37_" class="st3" d="M-210.2 337.1l3 24.2h-11.5V396H-266l7.9-60.6c3.1-19.1 11.4-25.6 25-25.6 14.9-.1 20.7 9.4 22.9 27.3z"/><path id="Path_38_" class="st1" d="M439 294.3h9.6v78.5h-21.9v-66.2c0-3.3 1.3-6.4 3.6-8.7 2.3-2.4 5.4-3.6 8.7-3.6z"/><path id="Path_39_" class="st5" d="M36.4 240.6V126.1H17.1v41.7H-8.4v184.1l-1.2 41.9 14.4 1.3v.1h12.5l-.2-87.6v-67z"/><path id="Shape_13_" class="st4" d="M115.4 314.8V396H10.5v-81.1h104.9zm-12.2 37v-5.7h-82v5.7h82zm0-11v-5.7h-82v5.7h82zm0-11v-5.7h-82v5.7h82z"/><path id="Rectangle_104_" class="st0" d="M-108.7 238.1H-82v79.7h-26.7z"/><path id="Path_40_" class="st1" d="M-60.3 302.8v49.9h-15.3V396h-52.6v-93.2h45.7z"/><path id="Rectangle_105_" class="st1" d="M-51.3 293h23.7v60h-23.7z"/><path id="Rectangle_106_" class="st0" d="M-75.6 275.3h27.9v77.6h-27.9z"/><path id="Rectangle_107_" class="st4" d="M129.6 309.4h34.2v86.5h-34.2z"/><path id="Rectangle_108_" class="st3" d="M330 358.1h10.8V396H330z"/><path id="Rectangle_109_" class="st0" d="M-331 372.5h28.5v23.9H-331z"/><path id="Rectangle_110_" class="st3" d="M-69.3 280.5h4.2V297h-4.2z"/><path id="Rectangle_111_" class="st3" d="M-62.5 280.5h4.2V297h-4.2z"/><path id="Rectangle_112_" class="st1" d="M110.9 367.5h52.9v26.1h-52.9z"/><path id="Rectangle_113_" class="st3" d="M96 357h33.5v36.9H96z"/><path id="Rectangle_114_" class="st1" d="M-1.6 358.6h24.5v32.3H-1.6z"/><path id="Rectangle_115_" class="st1" d="M17.1 240.6h19.2v73.5H17.1z"/><path id="Path_41_" class="st4" d="M65.1 282.3v32.5H17v-32.5h36.9z"/><path id="Rectangle_116_" class="st0" d="M-193.4 305.7h33.6v64.2h-33.6z"/><path id="Path_42_" class="st4" d="M-159.9 361.3V396h-58.8v-34.7H-181.8z"/><path id="Rectangle_117_" class="st1" d="M88.1 196.1h29.4v28.5H88.1z"/><path id="Rectangle_118_" class="st0" d="M-186.2 312.1h9.2c1.1 0 1.9.9 1.9 1.9v3c0 1.1-.9 1.9-1.9 1.9h-9.2c-1.1 0-1.9-.9-1.9-1.9v-3c-.1-1.1.8-1.9 1.9-1.9z"/><path id="Rectangle_119_" class="st0" d="M-186.2 321.8h9.2c1.1 0 1.9.9 1.9 1.9v3c0 1.1-.9 1.9-1.9 1.9h-9.2c-1.1 0-1.9-.9-1.9-1.9v-3c-.1-1 .8-1.9 1.9-1.9z"/><circle id="Oval" class="st6" cx="200.3" cy="259.5" r="5.3"/><path id="Path_43_" class="st0" d="M144.3 196.1h-47c0-3 2.4-5.3 5.4-5.4H139c2.9 0 5.3 2.4 5.3 5.4z"/><path id="Path_44_" class="st3" d="M-82 238.1h-26.7v-.2c0-2.5 2.1-4.6 4.6-4.6h17.4c1.3 0 2.5.5 3.3 1.4.9.9 1.4 2.1 1.4 3.4z"/><path id="Rectangle_120_" class="st0" d="M-75.6 348.5h67.1v4.7h-67.1z"/><path id="Path_45_" class="st4" d="M230.8 332.8c0-2.7-2.2-4.9-4.8-4.9h-15.3c-1.3 0-2.5.5-3.4 1.4-.9.9-1.4 2.1-1.4 3.4h24.9z"/><path id="Path_46_" class="st4" d="M471.5 204.1h21.9c1.4 0 2.5 1.1 2.5 2.5v3.3h-27.7v-2.6c0-1.8 1.4-3.2 3.3-3.2z"/><path id="Rectangle_121_" class="st3" d="M387.2 311.1h30.3v81.7h-30.3z"/><path id="Rectangle_122_" class="st0" d="M397.7 353.9h39.7v42h-39.7z"/><path id="Rectangle_123_" class="st1" d="M367.9 374.4h34.2v21.7h-34.2z"/><path id="Rectangle_124_" class="st0" d="M284.5 180.6h7.1v10.9h-7.1z"/><path id="Rectangle_125_" class="st0" d="M299.9 180.6h7.1v10.9h-7.1z"/><path id="Rectangle_126_" class="st0" d="M315.3 180.6h7.1v10.9h-7.1z"/><path id="Rectangle_127_" class="st0" d="M284.5 197.9h7.1v10.9h-7.1z"/><path id="Rectangle_128_" class="st0" d="M299.9 197.9h7.1v10.9h-7.1z"/><path id="Rectangle_129_" class="st0" d="M315.3 197.9h7.1v10.9h-7.1z"/><path id="Rectangle_130_" class="st0" d="M284.5 217.2h7.1v10.9h-7.1z"/><path id="Rectangle_131_" class="st0" d="M299.9 217.2h7.1v10.9h-7.1z"/><path id="Rectangle_132_" class="st0" d="M315.3 217.2h7.1v10.9h-7.1z"/><path id="Rectangle_133_" class="st0" d="M284.5 235.9h7.1v10.9h-7.1z"/><path id="Rectangle_134_" class="st0" d="M299.9 235.9h7.1v10.9h-7.1z"/><path id="Rectangle_135_" class="st0" d="M315.3 235.9h7.1v10.9h-7.1z"/><path id="Rectangle_136_" class="st4" d="M329.9 167.8h10.8v152.6h-10.8z"/><path id="Rectangle_137_" class="st4" d="M-139.8 340.2H-93v54h-46.8z"/><path id="Rectangle_138_" class="st1" d="M-302.5 364.8h52.9v35.5h-52.9z"/><path id="Rectangle_139_" class="st3" d="M-294.7 369.9h6V380h-6z"/><path id="Rectangle_140_" class="st3" d="M-284.1 369.9h6V380h-6z"/><path id="Rectangle_141_" class="st0" d="M513.7 357.7h24.1v36.4h-24.1z"/><path id="Rectangle_142_" class="st1" d="M556.7 343.6h42.6v49.2h-42.6z"/><path id="Rectangle_143_" class="st1" d="M435.3 322.7h8.2v70.2h-8.2z"/><path id="Rectangle_144_" class="st0" d="M442.2 322.7h12.3v70.2h-12.3z"/><path id="Rectangle_145_" class="st1" d="M155.4 348.5h50.4v42.4h-50.4z"/><path id="Path_47_" class="st5" d="M185.6 348.5h-30.1c0-3.3 2.7-5.9 5.9-5.9h18.3c3.2 0 5.9 2.7 5.9 5.9z"/><path id="Rectangle_146_" class="st0" d="M155.4 348.5h30.1v42.4h-30.1z"/><path id="Path_48_" class="st0" d="M208.5 392.9H3c-3.7-3.2-8.1-5.5-12.8-6.7C2.5 377 20.1 372.6 37 372.6c34.3 0 36.6 12 43.3 14.9 5.7-7.9 14.5-13 24-13 11.4 0 16.1 6 21.3 9.2 5.3-3.4 11.5-5.2 17.8-5.3 16 0 16.3 11.1 28.3 11.1 7.5 0 15.1-4.2 22.5-4.2 4.9-.1 9.6 1.7 14.3 7.6z"/><path id="Path_49_" class="st5" d="M-9.7 386.2c4.7 1.2 9.1 3.5 12.8 6.7h-239.2c3.5-3.6 9.9-7.5 19.4-7.5 7.8 0 16 2.3 22.6 5 5.9-7.4 14-11.6 22.9-11.6 10.9 0 14.1 5.1 19.2 5.1 8.5 0 12.9-9.3 28.8-9.3 11.1 0 22.7 4.8 30 12.1 8.7-5.9 19-9.1 29.5-9.2 10.5 0 20.6 3.6 27.4 12.5 5.9-2.9 12.3-4.5 18.8-4.7 2.8 0 5.3.3 7.8.9z"/></g></g></svg>
